<mxfile host="65bd71144e">
    <diagram id="9mScbql8NBwJR9KdxTV9" name="Page-1">
        <mxGraphModel dx="2336" dy="969" grid="1" gridSize="10" guides="1" tooltips="1" connect="1" arrows="1" fold="1" page="1" pageScale="1" pageWidth="850" pageHeight="1100" math="0" shadow="0">
            <root>
                <mxCell id="0"/>
                <mxCell id="1" parent="0"/>
                <mxCell id="2" value="&lt;span style=&quot;font-size: 14px;&quot;&gt;MbedTLS&lt;/span&gt;" style="shape=umlLifeline;perimeter=lifelinePerimeter;whiteSpace=wrap;html=1;container=1;collapsible=0;recursiveResize=0;outlineConnect=0;size=62;" vertex="1" parent="1">
                    <mxGeometry x="660" y="21" width="150" height="1940" as="geometry"/>
                </mxCell>
                <mxCell id="3" value="&lt;b&gt;HSECREST&lt;/b&gt;" style="html=1;verticalAlign=bottom;endArrow=open;dashed=1;endSize=8;fontSize=12;" edge="1" parent="2" target="28">
                    <mxGeometry relative="1" as="geometry">
                        <mxPoint x="79" y="430" as="sourcePoint"/>
                        <mxPoint x="-1" y="430" as="targetPoint"/>
                    </mxGeometry>
                </mxCell>
                <mxCell id="4" value="&lt;b&gt;clientRSA&lt;/b&gt;" style="html=1;verticalAlign=bottom;endArrow=open;dashed=1;endSize=8;fontSize=12;" edge="1" parent="2" target="28">
                    <mxGeometry relative="1" as="geometry">
                        <mxPoint x="74" y="529" as="sourcePoint"/>
                        <mxPoint x="-6" y="529" as="targetPoint"/>
                    </mxGeometry>
                </mxCell>
                <mxCell id="5" value="&lt;b&gt;&amp;nbsp;seq diagram&lt;/b&gt;" style="rounded=1;whiteSpace=wrap;html=1;fontSize=12;" vertex="1" parent="2">
                    <mxGeometry x="15" y="560" width="120" height="40" as="geometry"/>
                </mxCell>
                <mxCell id="6" value="&lt;b&gt;EXAMPLE&lt;/b&gt;" style="rounded=1;whiteSpace=wrap;html=1;fontSize=12;" vertex="1" parent="2">
                    <mxGeometry x="10" y="70" width="120" height="30" as="geometry"/>
                </mxCell>
                <mxCell id="7" value="22 Send authenticiation token + AES + hmac&amp;nbsp;&lt;span style=&quot;color: rgba(0, 0, 0, 0); font-family: monospace; font-size: 0px; font-weight: 400; text-align: start;&quot;&gt;%3CmxGraphModel%3E%3Croot%3E%3CmxCell%20id%3D%220%22%2F%3E%3CmxCell%20id%3D%221%22%20parent%3D%220%22%2F%3E%3CmxCell%20id%3D%222%22%20value%3D%2222%20Send%20auth%22%20style%3D%22html%3D1%3BverticalAlign%3Dbottom%3BlabelBackgroundColor%3Dnone%3BendArrow%3Dblock%3BendFill%3D1%3BfontStyle%3D1%3B%22%20edge%3D%221%22%20parent%3D%221%22%3E%3CmxGeometry%20x%3D%22-0.0513%22%20y%3D%2210%22%20width%3D%22160%22%20relative%3D%221%22%20as%3D%22geometry%22%3E%3CmxPoint%20x%3D%22487.75%22%20y%3D%221670%22%20as%3D%22sourcePoint%22%2F%3E%3CmxPoint%20x%3D%22988.2600000000002%22%20y%3D%221670%22%20as%3D%22targetPoint%22%2F%3E%3CmxPoint%20x%3D%22-1%22%20as%3D%22offset%22%2F%3E%3C%2FmxGeometry%3E%3C%2FmxCell%3E%3C%2Froot%3E%3C%2FmxGraphModel%3E&lt;/span&gt;&lt;span style=&quot;color: rgba(0, 0, 0, 0); font-family: monospace; font-size: 0px; font-weight: 400; text-align: start;&quot;&gt;%3CmxGraphModel%3E%3Croot%3E%3CmxCell%20id%3D%220%22%2F%3E%3CmxCell%20id%3D%221%22%20parent%3D%220%22%2F%3E%3CmxCell%20id%3D%222%22%20value%3D%2222%20Send%20auth%22%20style%3D%22html%3D1%3BverticalAlign%3Dbottom%3BlabelBackgroundColor%3Dnone%3BendArrow%3Dblock%3BendFill%3D1%3BfontStyle%3D1%3B%22%20edge%3D%221%22%20parent%3D%221%22%3E%3CmxGeometry%20x%3D%22-0.0513%22%20y%3D%2210%22%20width%3D%22160%22%20relative%3D%221%22%20as%3D%22geometry%22%3E%3CmxPoint%20x%3D%22487.75%22%20y%3D%221670%22%20as%3D%22sourcePoint%22%2F%3E%3CmxPoint%20x%3D%22988.2600000000002%22%20y%3D%221670%22%20as%3D%22targetPoint%22%2F%3E%3CmxPoint%20x%3D%22-1%22%20as%3D%22offset%22%2F%3E%3C%2FmxGeometry%3E%3C%2FmxCell%3E%3C%2Froot%3E%3C%2FmxGraphModel%3E&lt;/span&gt;" style="html=1;verticalAlign=bottom;labelBackgroundColor=none;endArrow=block;endFill=1;fontStyle=1;" edge="1" parent="2" source="28">
                    <mxGeometry x="-0.0513" y="10" width="160" relative="1" as="geometry">
                        <mxPoint x="-163.25" y="1649" as="sourcePoint"/>
                        <mxPoint x="337.26" y="1649" as="targetPoint"/>
                        <mxPoint x="-1" as="offset"/>
                    </mxGeometry>
                </mxCell>
                <mxCell id="8" value="&lt;span style=&quot;font-size: 14px;&quot;&gt;Client&lt;br&gt;Communication&lt;br&gt;&lt;/span&gt;" style="shape=umlLifeline;perimeter=lifelinePerimeter;whiteSpace=wrap;html=1;container=1;collapsible=0;recursiveResize=0;outlineConnect=0;size=62;" vertex="1" parent="1">
                    <mxGeometry x="920" y="20" width="150" height="1960" as="geometry"/>
                </mxCell>
                <mxCell id="9" value="&lt;font style=&quot;font-size: 12px;&quot;&gt;&lt;b&gt;Establish connection&lt;/b&gt;&lt;/font&gt;" style="html=1;verticalAlign=bottom;endArrow=block;" edge="1" parent="8" target="8">
                    <mxGeometry x="0.0269" y="10" width="80" relative="1" as="geometry">
                        <mxPoint x="-425" y="231" as="sourcePoint"/>
                        <mxPoint x="70" y="231" as="targetPoint"/>
                        <mxPoint as="offset"/>
                    </mxGeometry>
                </mxCell>
                <mxCell id="10" value="&lt;b&gt;13 Session established&lt;br&gt;Send&amp;nbsp; Encrypt session key + HMAC&lt;/b&gt;" style="html=1;verticalAlign=bottom;labelBackgroundColor=none;endArrow=block;endFill=1;fontSize=12;" edge="1" parent="8">
                    <mxGeometry x="0.0243" y="6" width="160" relative="1" as="geometry">
                        <mxPoint x="80" y="1130" as="sourcePoint"/>
                        <mxPoint x="316.74999999999955" y="1130" as="targetPoint"/>
                        <mxPoint as="offset"/>
                    </mxGeometry>
                </mxCell>
                <mxCell id="11" value="23 Send authenticiation token+ AES + hmac&amp;nbsp;&lt;span style=&quot;color: rgba(0, 0, 0, 0); font-family: monospace; font-size: 0px; font-weight: 400; text-align: start;&quot;&gt;%3CmxGraphModel%3E%3Croot%3E%3CmxCell%20id%3D%220%22%2F%3E%3CmxCell%20id%3D%221%22%20parent%3D%220%22%2F%3E%3CmxCell%20id%3D%222%22%20value%3D%2222%20Send%20auth%22%20style%3D%22html%3D1%3BverticalAlign%3Dbottom%3BlabelBackgroundColor%3Dnone%3BendArrow%3Dblock%3BendFill%3D1%3BfontStyle%3D1%3B%22%20edge%3D%221%22%20parent%3D%221%22%3E%3CmxGeometry%20x%3D%22-0.0513%22%20y%3D%2210%22%20width%3D%22160%22%20relative%3D%221%22%20as%3D%22geometry%22%3E%3CmxPoint%20x%3D%22487.75%22%20y%3D%221670%22%20as%3D%22sourcePoint%22%2F%3E%3CmxPoint%20x%3D%22988.2600000000002%22%20y%3D%221670%22%20as%3D%22targetPoint%22%2F%3E%3CmxPoint%20x%3D%22-1%22%20as%3D%22offset%22%2F%3E%3C%2FmxGeometry%3E%3C%2FmxCell%3E%3C%2Froot%3E%3C%2FmxGraphModel%3E&lt;/span&gt;&lt;span style=&quot;color: rgba(0, 0, 0, 0); font-family: monospace; font-size: 0px; font-weight: 400; text-align: start;&quot;&gt;%3CmxGraphModel%3E%3Croot%3E%3CmxCell%20id%3D%220%22%2F%3E%3CmxCell%20id%3D%221%22%20parent%3D%220%22%2F%3E%3CmxCell%20id%3D%222%22%20value%3D%2222%20Send%20auth%22%20style%3D%22html%3D1%3BverticalAlign%3Dbottom%3BlabelBackgroundColor%3Dnone%3BendArrow%3Dblock%3BendFill%3D1%3BfontStyle%3D1%3B%22%20edge%3D%221%22%20parent%3D%221%22%3E%3CmxGeometry%20x%3D%22-0.0513%22%20y%3D%2210%22%20width%3D%22160%22%20relative%3D%221%22%20as%3D%22geometry%22%3E%3CmxPoint%20x%3D%22487.75%22%20y%3D%221670%22%20as%3D%22sourcePoint%22%2F%3E%3CmxPoint%20x%3D%22988.2600000000002%22%20y%3D%221670%22%20as%3D%22targetPoint%22%2F%3E%3CmxPoint%20x%3D%22-1%22%20as%3D%22offset%22%2F%3E%3C%2FmxGeometry%3E%3C%2FmxCell%3E%3C%2Froot%3E%3C%333332FmxGrannnphModel%3E&lt;/span&gt;" style="html=1;verticalAlign=bottom;labelBackgroundColor=none;endArrow=block;endFill=1;fontStyle=1;" edge="1" parent="8">
                    <mxGeometry x="-0.0585" y="10" width="160" relative="1" as="geometry">
                        <mxPoint x="80" y="1680" as="sourcePoint"/>
                        <mxPoint x="319.5100000000002" y="1680" as="targetPoint"/>
                        <mxPoint as="offset"/>
                    </mxGeometry>
                </mxCell>
                <mxCell id="12" value="&lt;span style=&quot;font-size: 14px;&quot;&gt;Server&lt;br&gt;Communication&lt;br&gt;&lt;/span&gt;" style="shape=umlLifeline;perimeter=lifelinePerimeter;whiteSpace=wrap;html=1;container=1;collapsible=0;recursiveResize=0;outlineConnect=0;size=62;" vertex="1" parent="1">
                    <mxGeometry x="1163" y="20" width="150" height="1950" as="geometry"/>
                </mxCell>
                <mxCell id="13" value="&lt;b style=&quot;border-color: var(--border-color); color: rgb(0, 0, 0); font-family: Helvetica; font-size: 12px; font-style: normal; font-variant-ligatures: normal; font-variant-caps: normal; letter-spacing: normal; orphans: 2; text-align: center; text-indent: 0px; text-transform: none; widows: 2; word-spacing: 0px; -webkit-text-stroke-width: 0px; background-color: rgb(251, 251, 251); text-decoration-thickness: initial; text-decoration-style: initial; text-decoration-color: initial;&quot;&gt;8 Send public key + hmac&lt;/b&gt;" style="edgeStyle=orthogonalEdgeStyle;html=1;endArrow=none;elbow=vertical;startArrow=block;startFill=1;strokeColor=#545B64;rounded=0;fontSize=12;" edge="1" parent="12">
                    <mxGeometry x="0.0332" y="15" width="100" relative="1" as="geometry">
                        <mxPoint x="-173" y="911" as="sourcePoint"/>
                        <mxPoint x="77" y="910" as="targetPoint"/>
                        <mxPoint as="offset"/>
                        <Array as="points">
                            <mxPoint x="-48" y="910"/>
                        </Array>
                    </mxGeometry>
                </mxCell>
                <mxCell id="14" value="&lt;span style=&quot;font-size: 14px;&quot;&gt;MbedTLS&lt;br&gt;&lt;/span&gt;" style="shape=umlLifeline;perimeter=lifelinePerimeter;whiteSpace=wrap;html=1;container=1;collapsible=0;recursiveResize=0;outlineConnect=0;size=62;" vertex="1" parent="1">
                    <mxGeometry x="1417" y="22" width="150" height="1951" as="geometry"/>
                </mxCell>
                <mxCell id="15" value="&lt;b&gt;6 Generate server key pair and &lt;br&gt;send server public key + hmac&lt;/b&gt;" style="html=1;verticalAlign=bottom;labelBackgroundColor=none;endArrow=block;endFill=1;fontSize=12;" edge="1" parent="14">
                    <mxGeometry x="-0.0448" y="8" width="160" relative="1" as="geometry">
                        <mxPoint x="-179.67647058823513" y="786.0020000000002" as="sourcePoint"/>
                        <mxPoint x="307.49999999999955" y="786.0020000000002" as="targetPoint"/>
                        <mxPoint as="offset"/>
                    </mxGeometry>
                </mxCell>
                <mxCell id="16" value="&lt;b&gt;15 Server sends encrypted confiramtion + HMAC&lt;/b&gt;" style="edgeStyle=orthogonalEdgeStyle;html=1;endArrow=none;elbow=vertical;startArrow=block;startFill=1;strokeColor=#545B64;rounded=0;fontSize=12;" edge="1" parent="14" target="22">
                    <mxGeometry y="13" width="100" relative="1" as="geometry">
                        <mxPoint x="-179" y="1288" as="sourcePoint"/>
                        <mxPoint x="288.5" y="1288.0593294137093" as="targetPoint"/>
                        <mxPoint as="offset"/>
                        <Array as="points">
                            <mxPoint x="153" y="1288"/>
                            <mxPoint x="153" y="1288"/>
                        </Array>
                    </mxGeometry>
                </mxCell>
                <mxCell id="17" value="&lt;span style=&quot;font-size: 14px;&quot;&gt;Server&lt;br&gt;Application&lt;br&gt;&lt;/span&gt;" style="shape=umlLifeline;perimeter=lifelinePerimeter;whiteSpace=wrap;html=1;container=1;collapsible=0;recursiveResize=0;outlineConnect=0;size=62;" vertex="1" parent="1">
                    <mxGeometry x="1889" y="20" width="150" height="1920" as="geometry"/>
                </mxCell>
                <mxCell id="18" value="&lt;font style=&quot;font-size: 12px;&quot;&gt;&lt;b&gt;Communication created&lt;/b&gt;&lt;/font&gt;" style="html=1;verticalAlign=bottom;endArrow=open;dashed=1;endSize=8;" edge="1" parent="1" target="28">
                    <mxGeometry x="-0.0281" y="-7" relative="1" as="geometry">
                        <mxPoint x="990" y="200" as="sourcePoint"/>
                        <mxPoint x="490.25" y="197" as="targetPoint"/>
                        <Array as="points">
                            <mxPoint x="650" y="197"/>
                        </Array>
                        <mxPoint as="offset"/>
                    </mxGeometry>
                </mxCell>
                <mxCell id="19" value="&lt;font style=&quot;font-size: 12px;&quot;&gt;&lt;b&gt;Connected&lt;/b&gt;&lt;/font&gt;" style="html=1;verticalAlign=bottom;endArrow=open;dashed=1;endSize=8;" edge="1" parent="1" source="8" target="28">
                    <mxGeometry x="0.0369" y="-8" relative="1" as="geometry">
                        <mxPoint x="1207" y="348" as="sourcePoint"/>
                        <mxPoint x="486.75" y="348" as="targetPoint"/>
                        <Array as="points">
                            <mxPoint x="655.19" y="348"/>
                        </Array>
                        <mxPoint as="offset"/>
                    </mxGeometry>
                </mxCell>
                <mxCell id="20" value="" style="shape=umlLifeline;participant=umlActor;perimeter=lifelinePerimeter;whiteSpace=wrap;html=1;container=1;collapsible=0;recursiveResize=0;verticalAlign=top;spacingTop=36;outlineConnect=0;size=50;" vertex="1" parent="1">
                    <mxGeometry x="-47" y="20" width="30" height="2010" as="geometry"/>
                </mxCell>
                <mxCell id="21" value="&lt;font style=&quot;font-size: 12px;&quot;&gt;&lt;b&gt;Create connection&lt;/b&gt;&lt;/font&gt;" style="html=1;verticalAlign=bottom;endArrow=block;" edge="1" parent="1">
                    <mxGeometry x="-0.0066" y="8" width="80" relative="1" as="geometry">
                        <mxPoint x="487.8235294117653" y="157" as="sourcePoint"/>
                        <mxPoint x="994.5" y="157" as="targetPoint"/>
                        <mxPoint as="offset"/>
                    </mxGeometry>
                </mxCell>
                <mxCell id="22" value="&lt;span style=&quot;font-size: 14px;&quot;&gt;Server&lt;br&gt;Session&lt;br&gt;&lt;/span&gt;" style="shape=umlLifeline;perimeter=lifelinePerimeter;whiteSpace=wrap;html=1;container=1;collapsible=0;recursiveResize=0;outlineConnect=0;size=62;" vertex="1" parent="1">
                    <mxGeometry x="1650" y="19" width="150" height="1931" as="geometry"/>
                </mxCell>
                <mxCell id="23" value="&lt;b style=&quot;border-color: var(--border-color); background-color: rgb(251, 251, 251);&quot;&gt;7 server generates a temporary RSA key pair.&lt;br&gt;&lt;/b&gt;" style="edgeStyle=segmentEdgeStyle;endArrow=classic;html=1;curved=0;rounded=0;endSize=8;startSize=8;fontSize=12;exitX=0.523;exitY=0.848;exitDx=0;exitDy=0;exitPerimeter=0;" edge="1" parent="22">
                    <mxGeometry x="-0.5858" y="15" width="50" height="50" relative="1" as="geometry">
                        <mxPoint x="79.99999999999982" y="824.0359999999998" as="sourcePoint"/>
                        <mxPoint x="80.87352941176486" y="857" as="targetPoint"/>
                        <Array as="points">
                            <mxPoint x="80.55" y="821"/>
                            <mxPoint x="157.55" y="821"/>
                            <mxPoint x="157.55" y="857"/>
                        </Array>
                        <mxPoint as="offset"/>
                    </mxGeometry>
                </mxCell>
                <mxCell id="24" value="&lt;b&gt;17 Server decrypts request and validates HMAC&lt;/b&gt;" style="edgeStyle=segmentEdgeStyle;endArrow=classic;html=1;curved=0;rounded=0;endSize=8;startSize=8;fontSize=12;exitX=0.523;exitY=0.848;exitDx=0;exitDy=0;exitPerimeter=0;" edge="1" parent="22">
                    <mxGeometry x="-0.5905" y="15" width="50" height="50" relative="1" as="geometry">
                        <mxPoint x="71.44999999999982" y="1223.036" as="sourcePoint"/>
                        <mxPoint x="72.32352941176487" y="1256" as="targetPoint"/>
                        <Array as="points">
                            <mxPoint x="72" y="1220"/>
                            <mxPoint x="149" y="1220"/>
                            <mxPoint x="149" y="1256"/>
                        </Array>
                        <mxPoint as="offset"/>
                    </mxGeometry>
                </mxCell>
                <mxCell id="25" value="24 Send authenticiation&amp;nbsp; token+ AES + hmac&amp;nbsp;&lt;span style=&quot;color: rgba(0, 0, 0, 0); font-family: monospace; font-size: 0px; font-weight: 400; text-align: start;&quot;&gt;%3CmxGraphModel%3E%3Croot%3E%3CmxCell%20id%3D%220%22%2F%3E%3CmxCell%20id%3D%221%22%20parent%3D%220%22%2F%3E%3CmxCell%20id%3D%222%22%20value%3D%2222%20Send%20auth%22%20style%3D%22html%3D1%3BverticalAlign%3Dbottom%3BlabelBackgroundColor%3Dnone%3BendArrow%3Dblock%3BendFill%3D1%3BfontStyle%3D1%3B%22%20edge%3D%221%22%20parent%3D%221%22%3E%3CmxGeometry%20x%3D%22-0.0513%22%20y%3D%2210%22%20width%3D%22160%22%20relative%3D%221%22%20as%3D%22geometry%22%3E%3CmxPoint%20x%3D%22487.75%22%20y%3D%221670%22%20as%3D%22sourcePoint%22%2F%3E%3CmxPoint%20x%3D%22988.2600000000002%22%20y%3D%221670%22%20as%3D%22targetPoint%22%2F%3E%3CmxPoint%20x%3D%22-1%22%20as%3D%22offset%22%2F%3E%3C%2FmxGeometry%3E%3C%2FmxCell%3E%3C%2Froot%3E%3C%2FmxGraphModel%3E&lt;/span&gt;&lt;span style=&quot;color: rgba(0, 0, 0, 0); font-family: monospace; font-size: 0px; font-weight: 400; text-align: start;&quot;&gt;%3CmxGraphModel%3E%3Croot%3E%3CmxCell%20id%3D%220%22%2F%3E%3CmxCell%20id%3D%221%22%20parent%3D%220%22%2F%3E%3CmxCell%20id%3D%222%22%20value%3D%2222%20Send%20auth%22%20style%3D%22html%3D1%3BverticalAlign%3Dbottom%3BlabelBackgroundColor%3Dnone%3BendArrow%3Dblock%3BendFill%3D1%3BfontStyle%3D1%3B%22%20edge%3D%221%22%20parent%3D%221%22%3E%3CmxGeometry%20x%3D%22-0.0513%22%20y%3D%2210%22%20width%3D%22160%22%20relative%3D%221%22%20as%3D%22geometry%22%3E%3CmxPoint%20x%3D%22487.75%22%20y%3D%221670%22%20as%3D%22sourcePoint%22%2F%3E%3CmxPoint%20x%3D%22988.2600000000002%22%20y%3D%221670%22%20as%3D%22targetPoint%22%2F%3E%3CmxPoint%20x%3D%22-1%22%20as%3D%22offset%22%2F%3E%3C%2FmxGeometry%3E%3C%2FmxCell%3E%3C%2Froot%3E%3C%33333442FmxGraphModel%3E&lt;/span&gt;" style="html=1;verticalAlign=bottom;labelBackgroundColor=none;endArrow=block;endFill=1;fontStyle=1;" edge="1" parent="22" source="12">
                    <mxGeometry x="-0.0513" y="10" width="160" relative="1" as="geometry">
                        <mxPoint x="-160" y="1721" as="sourcePoint"/>
                        <mxPoint x="79.51000000000022" y="1721" as="targetPoint"/>
                        <mxPoint x="-1" as="offset"/>
                    </mxGeometry>
                </mxCell>
                <mxCell id="26" value="&lt;font style=&quot;font-size: 12px;&quot;&gt;&lt;b&gt;Connection failed&lt;/b&gt;&lt;/font&gt;" style="html=1;verticalAlign=bottom;endArrow=open;dashed=1;endSize=8;" edge="1" parent="1" target="28">
                    <mxGeometry x="-0.0038" y="-8" relative="1" as="geometry">
                        <mxPoint x="990" y="298" as="sourcePoint"/>
                        <mxPoint x="510" y="300" as="targetPoint"/>
                        <Array as="points">
                            <mxPoint x="751.19" y="298"/>
                        </Array>
                        <mxPoint as="offset"/>
                    </mxGeometry>
                </mxCell>
                <mxCell id="27" value="" style="text;strokeColor=none;fillColor=none;align=left;verticalAlign=middle;spacingTop=-1;spacingLeft=4;spacingRight=4;rotatable=0;labelPosition=right;points=[];portConstraint=eastwest;" vertex="1" parent="1">
                    <mxGeometry x="1780" y="80" width="20" height="14" as="geometry"/>
                </mxCell>
                <mxCell id="28" value="&lt;font style=&quot;font-size: 14px;&quot;&gt;Client&lt;br&gt;Session&lt;/font&gt;" style="shape=umlLifeline;perimeter=lifelinePerimeter;whiteSpace=wrap;html=1;container=1;collapsible=0;recursiveResize=0;outlineConnect=0;size=62;" vertex="1" parent="1">
                    <mxGeometry x="413" y="20" width="151" height="1930" as="geometry"/>
                </mxCell>
                <mxCell id="29" value="&lt;font style=&quot;font-size: 12px;&quot;&gt;&lt;b&gt;Create Session&lt;/b&gt;&lt;/font&gt;" style="html=1;verticalAlign=bottom;endArrow=block;" edge="1" parent="28" source="36">
                    <mxGeometry width="80" relative="1" as="geometry">
                        <mxPoint x="-117" y="116.47779273216689" as="sourcePoint"/>
                        <mxPoint x="77.5" y="116.47779273216689" as="targetPoint"/>
                    </mxGeometry>
                </mxCell>
                <mxCell id="30" value="&lt;font style=&quot;font-size: 12px;&quot;&gt;&lt;b&gt;Terminate Client&lt;/b&gt;&lt;/font&gt;" style="html=1;verticalAlign=bottom;endArrow=open;dashed=1;endSize=8;" edge="1" parent="28" target="36">
                    <mxGeometry x="-0.04" y="-10" relative="1" as="geometry">
                        <mxPoint x="74.68" y="359.9988649618663" as="sourcePoint"/>
                        <mxPoint x="-197.99647058823513" y="359.9988649618663" as="targetPoint"/>
                        <Array as="points"/>
                        <mxPoint as="offset"/>
                    </mxGeometry>
                </mxCell>
                <mxCell id="31" value="&lt;b&gt;19 Client Decrypts Response and Validates HMAC&lt;/b&gt;" style="edgeStyle=segmentEdgeStyle;endArrow=classic;html=1;curved=0;rounded=0;endSize=8;startSize=8;fontSize=12;exitX=0.523;exitY=0.848;exitDx=0;exitDy=0;exitPerimeter=0;" edge="1" parent="28">
                    <mxGeometry x="-0.3113" y="8" width="50" height="50" relative="1" as="geometry">
                        <mxPoint x="72.44999999999987" y="1441.036" as="sourcePoint"/>
                        <mxPoint x="73.32352941176492" y="1474" as="targetPoint"/>
                        <Array as="points">
                            <mxPoint x="73.00000000000006" y="1438"/>
                            <mxPoint x="150.00000000000006" y="1438"/>
                            <mxPoint x="150.00000000000006" y="1474"/>
                        </Array>
                        <mxPoint as="offset"/>
                    </mxGeometry>
                </mxCell>
                <mxCell id="32" value="&lt;b&gt;20 Client decrypts response and validates HMAC&lt;/b&gt;" style="edgeStyle=segmentEdgeStyle;endArrow=classic;html=1;curved=0;rounded=0;endSize=8;startSize=8;fontSize=12;exitX=0.523;exitY=0.848;exitDx=0;exitDy=0;exitPerimeter=0;" edge="1" parent="28">
                    <mxGeometry x="-0.569" y="11" width="50" height="50" relative="1" as="geometry">
                        <mxPoint x="73.44999999999987" y="1502.036" as="sourcePoint"/>
                        <mxPoint x="74.32352941176492" y="1535" as="targetPoint"/>
                        <Array as="points">
                            <mxPoint x="74.00000000000006" y="1499"/>
                            <mxPoint x="151.00000000000006" y="1499"/>
                            <mxPoint x="151.00000000000006" y="1535"/>
                        </Array>
                        <mxPoint as="offset"/>
                    </mxGeometry>
                </mxCell>
                <mxCell id="33" value="&lt;font style=&quot;font-size: 12px;&quot;&gt;&lt;b&gt;SHA256(SECREST&lt;/b&gt;&lt;/font&gt;)" style="html=1;verticalAlign=bottom;labelBackgroundColor=none;endArrow=open;endFill=0;" edge="1" parent="28" target="2">
                    <mxGeometry width="160" relative="1" as="geometry">
                        <mxPoint x="77" y="390" as="sourcePoint"/>
                        <mxPoint x="327" y="390" as="targetPoint"/>
                    </mxGeometry>
                </mxCell>
                <mxCell id="34" value="&lt;b&gt;Generate clientRSA&lt;/b&gt;" style="html=1;verticalAlign=bottom;labelBackgroundColor=none;endArrow=open;endFill=0;fontSize=12;" edge="1" parent="28">
                    <mxGeometry x="-0.0607" y="2" width="160" relative="1" as="geometry">
                        <mxPoint x="77" y="482" as="sourcePoint"/>
                        <mxPoint x="332.5" y="482" as="targetPoint"/>
                        <mxPoint as="offset"/>
                    </mxGeometry>
                </mxCell>
                <mxCell id="35" value="&lt;b&gt;11 client generate temp RSA key pair&lt;/b&gt;" style="edgeStyle=segmentEdgeStyle;endArrow=classic;html=1;curved=0;rounded=0;endSize=8;startSize=8;fontSize=12;exitX=0.523;exitY=0.848;exitDx=0;exitDy=0;exitPerimeter=0;" edge="1" parent="28">
                    <mxGeometry x="-0.569" y="11" width="50" height="50" relative="1" as="geometry">
                        <mxPoint x="73.44999999999982" y="1013.0360000000001" as="sourcePoint"/>
                        <mxPoint x="74.32352941176487" y="1046" as="targetPoint"/>
                        <Array as="points">
                            <mxPoint x="74.00000000000006" y="1010"/>
                            <mxPoint x="151" y="1010"/>
                            <mxPoint x="151" y="1046"/>
                        </Array>
                        <mxPoint as="offset"/>
                    </mxGeometry>
                </mxCell>
                <mxCell id="36" value="&lt;font style=&quot;font-size: 14px;&quot;&gt;Client&lt;br&gt;User interface&lt;br&gt;&lt;/font&gt;" style="shape=umlLifeline;perimeter=lifelinePerimeter;whiteSpace=wrap;html=1;container=1;collapsible=0;recursiveResize=0;outlineConnect=0;size=62;" vertex="1" parent="1">
                    <mxGeometry x="148" y="15" width="158" height="1970" as="geometry"/>
                </mxCell>
                <mxCell id="37" value="&lt;font style=&quot;font-size: 12px;&quot;&gt;&lt;b&gt;Start&lt;/b&gt;&lt;/font&gt;" style="html=1;verticalAlign=bottom;endArrow=block;" edge="1" parent="36">
                    <mxGeometry width="80" relative="1" as="geometry">
                        <mxPoint x="-178" y="90" as="sourcePoint"/>
                        <mxPoint x="78.5" y="90.00000000000023" as="targetPoint"/>
                    </mxGeometry>
                </mxCell>
                <mxCell id="38" value="&lt;font style=&quot;font-size: 12px;&quot;&gt;&lt;b&gt;Terminated&lt;/b&gt;&lt;/font&gt;" style="html=1;verticalAlign=bottom;endArrow=open;dashed=1;endSize=8;" edge="1" parent="36">
                    <mxGeometry relative="1" as="geometry">
                        <mxPoint x="74.18" y="400" as="sourcePoint"/>
                        <mxPoint x="-168" y="400" as="targetPoint"/>
                        <Array as="points"/>
                    </mxGeometry>
                </mxCell>
                <mxCell id="39" value="&lt;span style=&quot;font-size: 12px;&quot;&gt;&lt;b&gt;1 Start&lt;/b&gt;&lt;/span&gt;" style="html=1;verticalAlign=bottom;endArrow=block;" edge="1" parent="36" source="20">
                    <mxGeometry width="80" relative="1" as="geometry">
                        <mxPoint x="-168.99647058823513" y="616.0000000000002" as="sourcePoint"/>
                        <mxPoint x="84.18" y="616.0000000000002" as="targetPoint"/>
                    </mxGeometry>
                </mxCell>
                <mxCell id="40" value="Server&lt;br&gt;session" style="rounded=0;whiteSpace=wrap;html=1;" vertex="1" parent="1">
                    <mxGeometry x="1665" y="2000" width="120" height="60" as="geometry"/>
                </mxCell>
                <mxCell id="41" value="Server&lt;br&gt;application&lt;br&gt;" style="rounded=0;whiteSpace=wrap;html=1;" vertex="1" parent="1">
                    <mxGeometry x="1904" y="2000" width="120" height="60" as="geometry"/>
                </mxCell>
                <mxCell id="42" value="Mbed" style="rounded=0;whiteSpace=wrap;html=1;" vertex="1" parent="1">
                    <mxGeometry x="1432" y="2000" width="120" height="60" as="geometry"/>
                </mxCell>
                <mxCell id="43" value="Server&lt;br&gt;communicate" style="rounded=0;whiteSpace=wrap;html=1;" vertex="1" parent="1">
                    <mxGeometry x="1178" y="2000" width="120" height="60" as="geometry"/>
                </mxCell>
                <mxCell id="44" value="Client&lt;br&gt;communicate" style="rounded=0;whiteSpace=wrap;html=1;fontStyle=1" vertex="1" parent="1">
                    <mxGeometry x="935" y="2000" width="120" height="60" as="geometry"/>
                </mxCell>
                <mxCell id="45" value="Mbed" style="rounded=0;whiteSpace=wrap;html=1;" vertex="1" parent="1">
                    <mxGeometry x="685" y="2000" width="120" height="60" as="geometry"/>
                </mxCell>
                <mxCell id="46" value="client&lt;br&gt;session" style="rounded=0;whiteSpace=wrap;html=1;" vertex="1" parent="1">
                    <mxGeometry x="425" y="2000" width="120" height="60" as="geometry"/>
                </mxCell>
                <mxCell id="47" value="client&lt;br&gt;interface" style="rounded=0;whiteSpace=wrap;html=1;" vertex="1" parent="1">
                    <mxGeometry x="168" y="2000" width="120" height="60" as="geometry"/>
                </mxCell>
                <mxCell id="48" value="&lt;b&gt;9 Validate confiramtion + HMAC&lt;/b&gt;" style="edgeStyle=orthogonalEdgeStyle;html=1;endArrow=none;elbow=vertical;startArrow=open;startFill=0;strokeColor=#545B64;rounded=0;fontSize=12;dashed=1;" edge="1" parent="1">
                    <mxGeometry y="19" width="100" relative="1" as="geometry">
                        <mxPoint x="736" y="959" as="sourcePoint"/>
                        <mxPoint x="995.2499999999995" y="958" as="targetPoint"/>
                        <mxPoint as="offset"/>
                        <Array as="points">
                            <mxPoint x="833.75" y="958"/>
                            <mxPoint x="833.75" y="958"/>
                        </Array>
                    </mxGeometry>
                </mxCell>
                <mxCell id="49" value="&lt;b style=&quot;border-color: var(--border-color); background-color: rgb(251, 251, 251);&quot;&gt;10 Generate client key pair and&lt;br style=&quot;border-color: var(--border-color);&quot;&gt;send server public key + hmac&lt;/b&gt;" style="edgeStyle=orthogonalEdgeStyle;html=1;endArrow=none;elbow=vertical;startArrow=block;startFill=1;strokeColor=#545B64;rounded=0;fontSize=12;" edge="1" parent="1" target="8">
                    <mxGeometry x="0.2289" y="11" width="100" relative="1" as="geometry">
                        <mxPoint x="490.0035294117647" y="1001.3800000000001" as="sourcePoint"/>
                        <mxPoint x="970" y="997" as="targetPoint"/>
                        <mxPoint as="offset"/>
                        <Array as="points">
                            <mxPoint x="920" y="1001"/>
                            <mxPoint x="920" y="1001"/>
                        </Array>
                    </mxGeometry>
                </mxCell>
                <mxCell id="50" value="&lt;span style=&quot;font-size: 12px;&quot;&gt;&lt;b&gt;2 create serial port&lt;/b&gt;&lt;/span&gt;" style="html=1;verticalAlign=bottom;endArrow=block;" edge="1" parent="1">
                    <mxGeometry x="0.0041" width="80" relative="1" as="geometry">
                        <mxPoint x="227.96153846153857" y="662.4777927321668" as="sourcePoint"/>
                        <mxPoint x="491.5" y="662.4777927321668" as="targetPoint"/>
                        <mxPoint as="offset"/>
                    </mxGeometry>
                </mxCell>
                <mxCell id="51" value="&lt;blockquote style=&quot;margin: 0 0 0 40px; border: none; padding: 0px;&quot;&gt;&lt;blockquote style=&quot;margin: 0 0 0 40px; border: none; padding: 0px;&quot;&gt;&lt;blockquote style=&quot;margin: 0 0 0 40px; border: none; padding: 0px;&quot;&gt;&lt;blockquote style=&quot;margin: 0 0 0 40px; border: none; padding: 0px;&quot;&gt;&lt;font style=&quot;font-size: 12px;&quot;&gt;3 Client generates a temporary RSA key pair. + hmac&lt;/font&gt;&lt;/blockquote&gt;&lt;/blockquote&gt;&lt;/blockquote&gt;&lt;/blockquote&gt;" style="html=1;verticalAlign=bottom;labelBackgroundColor=none;endArrow=block;endFill=1;fontStyle=1;" edge="1" parent="1" target="8">
                    <mxGeometry x="-0.0039" y="2" width="160" relative="1" as="geometry">
                        <mxPoint x="487.46153846153857" y="701.9999999999998" as="sourcePoint"/>
                        <mxPoint x="730" y="702" as="targetPoint"/>
                        <mxPoint as="offset"/>
                    </mxGeometry>
                </mxCell>
                <mxCell id="52" value="&lt;b&gt;4 Send public key + HMAC.&lt;/b&gt;" style="html=1;verticalAlign=bottom;labelBackgroundColor=none;endArrow=open;endFill=0;fontSize=12;" edge="1" parent="1" source="8">
                    <mxGeometry x="-0.0089" y="10" width="160" relative="1" as="geometry">
                        <mxPoint x="730" y="730" as="sourcePoint"/>
                        <mxPoint x="1234.5" y="730" as="targetPoint"/>
                        <mxPoint as="offset"/>
                    </mxGeometry>
                </mxCell>
                <mxCell id="53" value="&lt;b&gt;5 Validate HMAC&lt;/b&gt;" style="html=1;verticalAlign=bottom;labelBackgroundColor=none;endArrow=open;endFill=0;fontSize=12;dashed=1;" edge="1" parent="1">
                    <mxGeometry x="-0.0408" y="12" width="160" relative="1" as="geometry">
                        <mxPoint x="1240" y="763.0900000000001" as="sourcePoint"/>
                        <mxPoint x="1490.4999999999995" y="760" as="targetPoint"/>
                        <mxPoint as="offset"/>
                    </mxGeometry>
                </mxCell>
                <mxCell id="54" value="&lt;b style=&quot;border-color: var(--border-color); color: rgb(0, 0, 0); font-family: Helvetica; font-size: 12px; font-style: normal; font-variant-ligatures: normal; font-variant-caps: normal; letter-spacing: normal; orphans: 2; text-align: center; text-indent: 0px; text-transform: none; widows: 2; word-spacing: 0px; -webkit-text-stroke-width: 0px; background-color: rgb(251, 251, 251); text-decoration-thickness: initial; text-decoration-style: initial; text-decoration-color: initial;&quot;&gt;8 Send server public key + hmac&lt;/b&gt;" style="edgeStyle=orthogonalEdgeStyle;html=1;endArrow=none;elbow=vertical;startArrow=block;startFill=1;strokeColor=#545B64;rounded=0;fontSize=12;" edge="1" parent="1">
                    <mxGeometry x="0.0332" y="15" width="100" relative="1" as="geometry">
                        <mxPoint x="1240" y="899" as="sourcePoint"/>
                        <mxPoint x="1722" y="899" as="targetPoint"/>
                        <mxPoint as="offset"/>
                        <Array as="points">
                            <mxPoint x="1365" y="898"/>
                        </Array>
                    </mxGeometry>
                </mxCell>
                <mxCell id="55" value="&lt;b&gt;12 Encrypt session key + HMAC&lt;/b&gt;" style="html=1;verticalAlign=bottom;labelBackgroundColor=none;endArrow=block;endFill=1;fontSize=12;" edge="1" parent="1" source="28">
                    <mxGeometry x="0.0262" y="6" width="160" relative="1" as="geometry">
                        <mxPoint x="530" y="1099" as="sourcePoint"/>
                        <mxPoint x="994.4999999999995" y="1099" as="targetPoint"/>
                        <mxPoint as="offset"/>
                    </mxGeometry>
                </mxCell>
                <mxCell id="56" value="&lt;b&gt;15 Send&amp;nbsp; Encrypt session key + HMAC&lt;/b&gt;" style="html=1;verticalAlign=bottom;labelBackgroundColor=none;endArrow=block;endFill=1;fontSize=12;" edge="1" parent="1">
                    <mxGeometry x="0.0266" y="6" width="160" relative="1" as="geometry">
                        <mxPoint x="1237.25" y="1212" as="sourcePoint"/>
                        <mxPoint x="1726.75" y="1212" as="targetPoint"/>
                        <mxPoint as="offset"/>
                    </mxGeometry>
                </mxCell>
                <mxCell id="57" value="&lt;font style=&quot;font-size: 12px;&quot;&gt;&lt;b&gt;14 Validate session key + HMAC&lt;/b&gt;&lt;/font&gt;" style="html=1;verticalAlign=bottom;labelBackgroundColor=none;endArrow=open;endFill=0;dashed=1;" edge="1" parent="1">
                    <mxGeometry x="-0.0523" y="11" width="160" relative="1" as="geometry">
                        <mxPoint x="1243" y="1171" as="sourcePoint"/>
                        <mxPoint x="1490" y="1170" as="targetPoint"/>
                        <mxPoint as="offset"/>
                    </mxGeometry>
                </mxCell>
                <mxCell id="58" value="&lt;b&gt;17 Server sends encrypted confiramtion + HMAC&lt;/b&gt;" style="edgeStyle=orthogonalEdgeStyle;html=1;endArrow=none;elbow=vertical;startArrow=block;startFill=1;strokeColor=#545B64;rounded=0;fontSize=12;" edge="1" parent="1" target="12">
                    <mxGeometry y="13" width="100" relative="1" as="geometry">
                        <mxPoint x="994.75" y="1375" as="sourcePoint"/>
                        <mxPoint x="1481.25" y="1375" as="targetPoint"/>
                        <mxPoint as="offset"/>
                        <Array as="points">
                            <mxPoint x="1150" y="1375"/>
                            <mxPoint x="1150" y="1375"/>
                        </Array>
                    </mxGeometry>
                </mxCell>
                <mxCell id="59" value="&lt;b&gt;18 Client recives encrypted confiramtion + HMAC&lt;/b&gt;" style="edgeStyle=orthogonalEdgeStyle;html=1;endArrow=none;elbow=vertical;startArrow=block;startFill=1;strokeColor=#545B64;rounded=0;fontSize=12;" edge="1" parent="1">
                    <mxGeometry y="13" width="100" relative="1" as="geometry">
                        <mxPoint x="487.75" y="1410" as="sourcePoint"/>
                        <mxPoint x="992.75" y="1410" as="targetPoint"/>
                        <mxPoint as="offset"/>
                        <Array as="points">
                            <mxPoint x="650" y="1410"/>
                            <mxPoint x="650" y="1410"/>
                        </Array>
                    </mxGeometry>
                </mxCell>
                <mxCell id="60" value="&lt;b&gt;21 Client authentication&lt;/b&gt;" style="edgeStyle=segmentEdgeStyle;endArrow=classic;html=1;curved=0;rounded=0;endSize=8;startSize=8;fontSize=12;exitX=0.523;exitY=0.848;exitDx=0;exitDy=0;exitPerimeter=0;" edge="1" parent="1">
                    <mxGeometry x="-0.573" y="11" width="50" height="50" relative="1" as="geometry">
                        <mxPoint x="490.4499999999998" y="1598.0359999999996" as="sourcePoint"/>
                        <mxPoint x="491.32352941176487" y="1631" as="targetPoint"/>
                        <Array as="points">
                            <mxPoint x="491.00000000000006" y="1595"/>
                            <mxPoint x="568" y="1595"/>
                            <mxPoint x="568" y="1631"/>
                        </Array>
                        <mxPoint as="offset"/>
                    </mxGeometry>
                </mxCell>
                <mxCell id="61" value="&lt;span style=&quot;font-size: 11px; font-weight: 700; background-color: rgb(251, 251, 251);&quot;&gt;25 Send authenticiation&amp;nbsp; token+ AES + hmac&amp;nbsp;&lt;/span&gt;&lt;span style=&quot;border-color: var(--border-color); background-color: rgb(251, 251, 251); color: rgba(0, 0, 0, 0); font-family: monospace; font-size: 0px; text-align: start;&quot;&gt;%3CmxGraphModel%3E%3Croot%3E%3CmxCell%20id%3D%220%22%2F%3E%3CmxCell%20id%3D%221%22%20parent%3D%220%22%2F%3E%3CmxCell%20id%3D%222%22%20value%3D%2222%20Send%20auth%22%20style%3D%22html%3D1%3BverticalAlign%3Dbottom%3BlabelBackgroundColor%3Dnone%3BendArrow%3Dblock%3BendFill%3D1%3BfontStyle%3D1%3B%22%20edge%3D%221%22%20parent%3D%221%22%3E%3CmxGeometry%20x%3D%22-0.0513%22%20y%3D%2210%22%20width%3D%22160%22%20relative%3D%221%22%20as%3D%22geometry%22%3E%3CmxPoint%20x%3D%22487.75%22%20y%3D%221670%22%20as%3D%22sourcePoint%22%2F%3E%3CmxPoint%20x%3D%22988.2600000000002%22%20y%3D%221670%22%20as%3D%22targetPoint%22%2F%3E%3CmxPoint%20x%3D%22-1%22%20as%3D%22offset%22%2F%3E%3C%2FmxGeometry%3E%3C%2FmxCell%3E%3C%2Froot%3E%3C%2FmxGraphModel%3E&lt;/span&gt;&lt;span style=&quot;border-color: var(--border-color); background-color: rgb(251, 251, 251); color: rgba(0, 0, 0, 0); font-family: monospace; font-size: 0px; text-align: start;&quot;&gt;%3CmxGraphModel%3E%3Croot%3E%3CmxCell%20id%3D%220%22%2F%3E%3CmxCell%20id%3D%221%22%20parent%3D%220%22%2F%3E%3CmxCell%20id%3D%222%22%20value%3D%2222%20Send%20auth%22%20style%3D%22html%3D1%3BverticalAlign%3Dbottom%3BlabelBackgroundColor%3Dnone%3BendArrow%3Dblock%3BendFill%3D1%3BfontStyle%3D1%3B%22%20edge%3D%221%22%20parent%3D%221%22%3E%3CmxGeometry%20x%3D%22-0.0513%22%20y%3D%2210%22%20width%3D%22160%22%20relative%3D%221%22%20as%3D%22geometry%22%3E%3CmxPoint%20x%3D%22487.75%22%20y%3D%221670%22%20as%3D%22sourcePoint%22%2F%3E%3CmxPoint%20x%3D%22988.2600000000002%22%20y%3D%221670%22%20as%3D%22targetPoint%22%2F%3E%3CmxPoint%20x%3D%22-1%22%20as%3D%22offset%22%2F%3E%3C%2FmxGeometry%3E%3C%2FmxCell%3E%3C%2Froot%3E%3C%33333442FmxGraphModel%3E&lt;/span&gt;" style="edgeStyle=segmentEdgeStyle;endArrow=classic;html=1;curved=0;rounded=0;endSize=8;startSize=8;fontSize=12;exitX=0.523;exitY=0.848;exitDx=0;exitDy=0;exitPerimeter=0;" edge="1" parent="1">
                    <mxGeometry x="-0.5859" y="15" width="50" height="50" relative="1" as="geometry">
                        <mxPoint x="1722.4499999999998" y="1773.0359999999996" as="sourcePoint"/>
                        <mxPoint x="1723.3235294117649" y="1806" as="targetPoint"/>
                        <Array as="points">
                            <mxPoint x="1723" y="1770"/>
                            <mxPoint x="1800" y="1770"/>
                            <mxPoint x="1800" y="1806"/>
                        </Array>
                        <mxPoint as="offset"/>
                    </mxGeometry>
                </mxCell>
                <mxCell id="62" value="&lt;b&gt;26 Server sends&amp;nbsp;&lt;/b&gt;&lt;span style=&quot;font-size: 11px; font-weight: 700; background-color: rgb(251, 251, 251);&quot;&gt;authenticiation +AES+hmac&lt;/span&gt;" style="edgeStyle=orthogonalEdgeStyle;html=1;endArrow=none;elbow=vertical;startArrow=block;startFill=1;strokeColor=#545B64;rounded=0;fontSize=12;" edge="1" parent="1">
                    <mxGeometry y="13" width="100" relative="1" as="geometry">
                        <mxPoint x="1239.5" y="1840" as="sourcePoint"/>
                        <mxPoint x="1720" y="1840" as="targetPoint"/>
                        <mxPoint as="offset"/>
                        <Array as="points">
                            <mxPoint x="1401.75" y="1840"/>
                            <mxPoint x="1401.75" y="1840"/>
                        </Array>
                    </mxGeometry>
                </mxCell>
                <mxCell id="63" value="&lt;b&gt;27 send&amp;nbsp;&lt;/b&gt;&lt;span style=&quot;font-size: 11px; font-weight: 700; background-color: rgb(251, 251, 251);&quot;&gt;authenticiation +AES+hmac&lt;/span&gt;" style="edgeStyle=orthogonalEdgeStyle;html=1;endArrow=none;elbow=vertical;startArrow=block;startFill=1;strokeColor=#545B64;rounded=0;fontSize=12;" edge="1" parent="1" target="12">
                    <mxGeometry y="13" width="100" relative="1" as="geometry">
                        <mxPoint x="990" y="1874" as="sourcePoint"/>
                        <mxPoint x="1230" y="1874" as="targetPoint"/>
                        <mxPoint as="offset"/>
                        <Array as="points">
                            <mxPoint x="1150" y="1874"/>
                            <mxPoint x="1150" y="1874"/>
                        </Array>
                    </mxGeometry>
                </mxCell>
                <mxCell id="64" value="&lt;b&gt;28 Client recives&amp;nbsp;&lt;/b&gt;&lt;span style=&quot;font-size: 11px; font-weight: 700; background-color: rgb(251, 251, 251);&quot;&gt;authenticiation +AES+hmac&lt;/span&gt;" style="edgeStyle=orthogonalEdgeStyle;html=1;endArrow=none;elbow=vertical;startArrow=block;startFill=1;strokeColor=#545B64;rounded=0;fontSize=12;" edge="1" parent="1" target="8">
                    <mxGeometry y="13" width="100" relative="1" as="geometry">
                        <mxPoint x="489.99999999999955" y="1890" as="sourcePoint"/>
                        <mxPoint x="737.5" y="1890" as="targetPoint"/>
                        <mxPoint as="offset"/>
                        <Array as="points">
                            <mxPoint x="860" y="1890"/>
                            <mxPoint x="860" y="1890"/>
                        </Array>
                    </mxGeometry>
                </mxCell>
                <mxCell id="65" value="&lt;b&gt;29 end Session establish&amp;nbsp;&lt;/b&gt;" style="edgeStyle=orthogonalEdgeStyle;html=1;endArrow=none;elbow=vertical;startArrow=block;startFill=1;strokeColor=#545B64;rounded=0;fontSize=12;" edge="1" parent="1" source="20">
                    <mxGeometry y="13" width="100" relative="1" as="geometry">
                        <mxPoint x="230" y="1920" as="sourcePoint"/>
                        <mxPoint x="477.49999999999955" y="1920" as="targetPoint"/>
                        <mxPoint as="offset"/>
                        <Array as="points">
                            <mxPoint x="100" y="1920"/>
                            <mxPoint x="100" y="1920"/>
                        </Array>
                    </mxGeometry>
                </mxCell>
            </root>
        </mxGraphModel>
    </diagram>
</mxfile>